<?xml version="1.0" encoding="UTF-8" standalone="no"?>
<svg
   viewBox="0 0 175.29502 142.33973"
   version="1.1"
   id="svg8"
   sodipodi:docname="Blender clear.svg"
   width="175.29503"
   height="142.33974"
   inkscape:version="1.4 (86a8ad7, 2024-10-11)"
   xmlns:inkscape="http://www.inkscape.org/namespaces/inkscape"
   xmlns:sodipodi="http://sodipodi.sourceforge.net/DTD/sodipodi-0.dtd"
   xmlns="http://www.w3.org/2000/svg"
   xmlns:svg="http://www.w3.org/2000/svg">
  <sodipodi:namedview
     id="namedview8"
     pagecolor="#505050"
     bordercolor="#eeeeee"
     borderopacity="1"
     inkscape:showpageshadow="0"
     inkscape:pageopacity="0"
     inkscape:pagecheckerboard="0"
     inkscape:deskcolor="#505050"
     inkscape:zoom="3.262367"
     inkscape:cx="67.895489"
     inkscape:cy="71.267274"
     inkscape:window-width="1920"
     inkscape:window-height="1017"
     inkscape:window-x="-8"
     inkscape:window-y="-8"
     inkscape:window-maximized="1"
     inkscape:current-layer="svg8" />
  <defs
     id="defs1">
    <style
       id="style1">.a{fill:#0e548b;}.b{fill:#f4792b;}</style>
  </defs>
  <title
     id="title1">Blender logo - Brandlogos.net</title>
  <path
     class="a"
     d="m 91.377331,80.036252 a 20.69,20.69 0 0 1 7.51,-14.64 25.47,25.47 0 0 1 32.299999,0 20.71,20.71 0 0 1 7.51,14.64 20.33,20.33 0 0 1 -6.32,15.72 25.39,25.39 0 0 1 -34.679999,0 20.3,20.3 0 0 1 -6.32,-15.72 z"
     id="path1" />
  <path
     class="b"
     d="m 53.697331,91.846252 a 43.25,43.25 0 0 0 1.86,10.199998 53.82,53.82 0 0 0 11.66,20.13 60.08,60.08 0 0 0 20.35,14.61 66.54,66.54 0 0 0 53.429999,-0.09 60.5,60.5 0 0 0 20.34,-14.67 54.28,54.28 0 0 0 11.62,-20.17 50.68,50.68 0 0 0 1.82,-22.439998 52,52 0 0 0 -7.44,-20.24 56.61,56.61 0 0 0 -13.53,-15 v 0 L 99.067331,2.1762517 l -0.14,-0.11 c -3.59,-2.76 -9.63,-2.75 -13.58,0 -3.95,2.75 -4.45,7.42 -0.9,10.3300003 v 0 l 22.829999,18.57 -69.589999,0.07 h -0.09 c -5.75,0 -11.28,3.78 -12.38,8.55 -1.1,4.77 2.78,8.89 8.76,8.91 v 0 l 35.24,-0.02 -62.9400004,48.31 -0.24,0.18 c -5.93999996,4.549998 -7.86,12.109998 -4.12,16.889998 3.74,4.78 11.8700004,4.87 17.8700004,0 l 34.35,-28.109998 a 53.75,53.75 0 0 0 -0.44,6.1 z m 88.269999,12.709998 a 39.7,39.7 0 0 1 -55.439999,0.09 33,33 0 0 1 -7.57,-11.839998 30.76,30.76 0 0 1 -1.74,-13.24 31.25,31.25 0 0 1 3.79,-12.46 34.34,34.34 0 0 1 8.42,-10 40,40 0 0 1 49.609999,-0.07 34.21,34.21 0 0 1 8.41,10 31.26,31.26 0 0 1 3.81,12.45 30.83,30.83 0 0 1 -1.74,13.23 33.12,33.12 0 0 1 -7.55,11.839998 z"
     id="path2" />
</svg>
