<svg xmlns="http://www.w3.org/2000/svg" viewBox="0 0 544.39 142.35"><defs><style>.a{fill:#0e548b;}.b{fill:#f4792b;}</style></defs><title>Blender logo - Brandlogos.net</title><path class="a" d="M331.16,520.86a20.69,20.69,0,0,1,7.51-14.64,25.47,25.47,0,0,1,32.3,0,20.71,20.71,0,0,1,7.51,14.64,20.33,20.33,0,0,1-6.32,15.72,25.39,25.39,0,0,1-34.68,0A20.3,20.3,0,0,1,331.16,520.86Z" transform="translate(-239.81 -440.82)"/><path class="b" d="M293.48,532.67a43.25,43.25,0,0,0,1.86,10.2A53.82,53.82,0,0,0,307,563a60.08,60.08,0,0,0,20.35,14.61,66.54,66.54,0,0,0,53.43-.09,60.5,60.5,0,0,0,20.34-14.67,54.28,54.28,0,0,0,11.62-20.17,50.68,50.68,0,0,0,1.82-22.44A52,52,0,0,0,407.12,500,56.61,56.61,0,0,0,393.59,485h0l-54.74-42-.14-.11c-3.59-2.76-9.63-2.75-13.58,0s-4.45,7.42-.9,10.33l0,0,22.83,18.57-69.59.07h-.09c-5.75,0-11.28,3.78-12.38,8.55s2.78,8.89,8.76,8.91v0L309,489.3l-62.94,48.31-.24.18c-5.94,4.55-7.86,12.11-4.12,16.89s11.87,4.87,17.87,0l34.35-28.11A53.75,53.75,0,0,0,293.48,532.67Zm88.27,12.71a39.7,39.7,0,0,1-55.44.09,33,33,0,0,1-7.57-11.84A30.76,30.76,0,0,1,317,520.39a31.25,31.25,0,0,1,3.79-12.46,34.34,34.34,0,0,1,8.42-10,40,40,0,0,1,49.61-.07,34.21,34.21,0,0,1,8.41,10,31.26,31.26,0,0,1,3.81,12.45,30.83,30.83,0,0,1-1.74,13.23A33.12,33.12,0,0,1,381.75,545.38Z" transform="translate(-239.81 -440.82)"/><path class="a" d="M706.2,520.77c.53-5.9,5.09-9.64,12.05-9.64s11.53,3.74,12.06,9.64Zm23.4,14.56c-1.78,4.37-6,7-11.7,7-7.15,0-12-4.46-12.16-11.51h41.1V528.7c0-17.66-10.37-27.59-28.94-27.59-18,0-28.95,10-28.95,25.73S700,552.65,717.9,552.65c10.72,0,19-3.68,24.16-10.14Z" transform="translate(-239.81 -440.82)"/><path class="a" d="M523.84,520.8c.54-5.9,5.1-9.64,12.07-9.64s11.52,3.74,12.05,9.64Zm23.41,14.56c-1.79,4.38-6,7-11.71,7-7.14,0-12-4.48-12.15-11.53h41.09v-2.06c0-17.67-10.36-27.6-28.94-27.6-18,0-28.93,10-28.93,25.73s11.07,25.81,28.93,25.81c10.72,0,19-3.66,24.17-10.13Z" transform="translate(-239.81 -440.82)"/><rect class="a" x="248.3" y="49.61" width="14.82" height="60.63"/><path class="a" d="M568.17,506.54h14.9v3.61c5.28-5.63,11.61-8.48,18.76-8.48,8.23,0,14.46,2.85,17.68,7.69,2.69,4,2.86,8.83,2.86,15.18v26.52H607.45v-23.3c0-9.67-1.94-14.13-10.43-14.13s-13.94,5.11-13.94,13.69v23.74h-14.9Z" transform="translate(-239.81 -440.82)"/><path class="a" d="M670.37,527.59c0,8.3-5.55,13.74-14.13,13.74s-14.13-5.26-14.13-13.65,5.47-13.77,14.13-13.77S670.37,519.27,670.37,527.59Zm0-19c-3.77-4-9.22-6.26-16.8-6.26-16.35,0-27.52,10.08-27.52,25.19,0,14.81,11.09,25.18,27.25,25.18,7.41,0,12.85-1.87,17.07-6.07v4.46h14.91V486.59l-14.91,3.85Z" transform="translate(-239.81 -440.82)"/><path class="a" d="M454.23,513.92c8.67,0,14.12,5.25,14.12,13.77s-5.54,13.65-14.12,13.65-14.11-5.44-14.11-13.74S445.66,513.92,454.23,513.92Zm-14.11-23.49-14.92-3.85v64.48h14.92V546.6c4.2,4.2,9.65,6.07,17.06,6.07,16.17,0,27.24-10.36,27.24-25.18,0-15.11-11.17-25.19-27.51-25.19-7.59,0-13,2.22-16.79,6.26Z" transform="translate(-239.81 -440.82)"/><path class="a" d="M750.52,551.07V506.54h14.91v2.75c4.47-5.38,9.19-8.05,14.57-8.05,1.07,0,2.41.17,4.19.35v12.69a37.67,37.67,0,0,0-4.74-.19c-8.67,0-14,5.72-14,15.44v21.53Z" transform="translate(-239.81 -440.82)"/></svg>