<?xml version="1.0" encoding="UTF-8" standalone="no"?>
<svg
   id="Layer_1"
   viewBox="0 0 244.33185 336.17001"
   version="1.1"
   sodipodi:docname="CorelDRAW clear.svg"
   width="244.33185"
   height="336.17001"
   inkscape:version="1.4 (86a8ad7, 2024-10-11)"
   xmlns:inkscape="http://www.inkscape.org/namespaces/inkscape"
   xmlns:sodipodi="http://sodipodi.sourceforge.net/DTD/sodipodi-0.dtd"
   xmlns:xlink="http://www.w3.org/1999/xlink"
   xmlns="http://www.w3.org/2000/svg"
   xmlns:svg="http://www.w3.org/2000/svg">
  <sodipodi:namedview
     id="namedview35"
     pagecolor="#505050"
     bordercolor="#eeeeee"
     borderopacity="1"
     inkscape:showpageshadow="0"
     inkscape:pageopacity="0"
     inkscape:pagecheckerboard="0"
     inkscape:deskcolor="#505050"
     inkscape:zoom="1.7980057"
     inkscape:cx="122.07971"
     inkscape:cy="216.07274"
     inkscape:window-width="1920"
     inkscape:window-height="1017"
     inkscape:window-x="-8"
     inkscape:window-y="-8"
     inkscape:window-maximized="1"
     inkscape:current-layer="Layer_1" />
  <defs
     id="defs16">
    <style
       id="style1">.cls-1{fill:none;}.cls-2{fill:#06cbf6;}.cls-3{fill:#009550;}.cls-4{fill:url(#linear-gradient-8);}.cls-5{fill:url(#linear-gradient-7);}.cls-6{fill:url(#linear-gradient-5);}.cls-7{fill:url(#linear-gradient-6);}.cls-8{fill:url(#linear-gradient-9);}.cls-9{fill:url(#linear-gradient-4);}.cls-10{fill:url(#linear-gradient-3);}.cls-11{fill:url(#linear-gradient-2);}.cls-12{fill:#00863f;}.cls-13{fill:#00983e;}.cls-14{fill:url(#linear-gradient);}.cls-15{clip-path:url(#clippath-11);}.cls-16{clip-path:url(#clippath-10);}.cls-17{clip-path:url(#clippath-12);}.cls-18{fill:#1e120d;}.cls-19{clip-path:url(#clippath-1);}.cls-20{clip-path:url(#clippath-3);}.cls-21{clip-path:url(#clippath-4);}.cls-22{clip-path:url(#clippath-2);}.cls-23{clip-path:url(#clippath-7);}.cls-24{clip-path:url(#clippath-6);}.cls-25{clip-path:url(#clippath-9);}.cls-26{clip-path:url(#clippath-8);}.cls-27{clip-path:url(#clippath-5);}.cls-28{fill:url(#linear-gradient-10);}.cls-29{fill:#009a37;}.cls-30{fill:#97cc1a;}.cls-31{fill:#666565;}.cls-32{fill:#2ac64b;}.cls-33{clip-path:url(#clippath);}.cls-34{fill:#008a5a;}</style>
    <clipPath
       id="clippath">
      <rect
         class="cls-1"
         width="453.28"
         height="453.28"
         id="rect1"
         x="0"
         y="0" />
    </clipPath>
    <clipPath
       id="clippath-1">
      <path
         class="cls-1"
         d="m 321.58,50.54 c 2.98,0.85 5.8,1.68 8.44,2.49 -11.28,-14.31 -25.12,-24.61 -34.37,-27.94 0,0 13.93,8.36 25.93,25.45 M 164.79,30.97 c 2.56,1.83 6.07,4.25 10.31,7.06 14.8,-21.13 32.11,-27.27 33,-27.57 -14.39,2.88 -29.81,9.97 -43.31,20.51 M 281.15,41.5 c 8.49,1.4 16.55,3.05 23.98,4.79 -16.16,-19.08 -38.77,-31.73 -59.29,-35.84 0.93,0.32 20.07,7.11 35.31,31.04 M 226.72,10.44 c 0,0 -17.88,3.71 -28.86,29.61 3.67,-0.63 7.44,-1.14 11.33,-1.53 15.64,-1.6 31.26,-1.45 46.14,-0.22 -11.03,-24.33 -28.1,-27.86 -28.1,-27.86 h -0.5 z"
         id="path1" />
    </clipPath>
    <linearGradient
       id="linear-gradient"
       x1="-147.2"
       y1="603.16998"
       x2="-146.60001"
       y2="603.16998"
       gradientTransform="matrix(0,245.17,-245.17,0,148127.44,36045.98)"
       gradientUnits="userSpaceOnUse">
      <stop
         offset="0"
         stop-color="#0288f7"
         id="stop1" />
      <stop
         offset="1"
         stop-color="#2ee2bd"
         id="stop2" />
    </linearGradient>
    <clipPath
       id="clippath-3">
      <path
         class="cls-1"
         d="m 157.58,213.84 c 3.53,7.31 6.91,13.83 9.81,19.28 4.98,9.32 9.71,17.24 14.59,24.45 1.41,-4.94 3.17,-10.15 5.37,-15.55 -3.79,-8.69 -7.59,-18.02 -11.2,-27.75 -7.86,-21.12 -14.84,-44.1 -18.75,-66.41 -10.38,-7.61 -20.13,-13.52 -28.61,-18.04 4.86,30.04 17.62,60.97 28.79,84.03"
         id="path2" />
    </clipPath>
    <linearGradient
       id="linear-gradient-2"
       x1="-147.34"
       y1="602.81"
       x2="-146.74001"
       y2="602.81"
       gradientTransform="matrix(0,-160.79,160.79,0,-96770.22,-23439.34)"
       gradientUnits="userSpaceOnUse">
      <stop
         offset="0"
         stop-color="#cb1918"
         id="stop3" />
      <stop
         offset=".39"
         stop-color="#a2183d"
         id="stop4" />
      <stop
         offset=".75"
         stop-color="#902869"
         id="stop5" />
      <stop
         offset="1"
         stop-color="#73358a"
         id="stop6" />
    </linearGradient>
    <clipPath
       id="clippath-4">
      <path
         class="cls-1"
         d="m 140.98,213.46 c 2,3.49 4.08,7.01 6.24,10.56 10.09,16.54 21.74,31.82 32.11,44.23 0.31,-1.51 0.66,-3.06 1.06,-4.63 -4.2,-5.76 -8.29,-11.63 -11.81,-17.06 -5.05,-7.77 -12.36,-19.04 -19.97,-32.91 -13.05,-23.79 -26.97,-55.22 -31.8,-89.76 -4.11,-1.87 -7.66,-3.31 -10.56,-4.4 4.17,30.97 16.01,61.36 34.73,93.98"
         id="path6" />
    </clipPath>
    <linearGradient
       id="linear-gradient-3"
       x1="-147.34"
       y1="602.92999"
       x2="-146.74001"
       y2="602.92999"
       gradientTransform="matrix(0,-160.8,160.8,0,-96805.1,-23434.04)"
       xlink:href="#linear-gradient-2" />
    <clipPath
       id="clippath-5">
      <path
         class="cls-1"
         d="m 195.07,191.18 c 1.31,7.82 2.84,15.77 4.5,23.61 0.16,0.75 0.32,1.49 0.48,2.24 3.31,-5.36 7.08,-10.79 11.35,-16.23 -3.96,-5.01 -8.06,-9.92 -12.28,-14.72 -1.95,-2.21 -3.9,-4.35 -5.87,-6.43 0.57,3.84 1.17,7.68 1.83,11.52"
         id="path7" />
    </clipPath>
    <linearGradient
       id="linear-gradient-4"
       x1="-147.34"
       y1="602.70001"
       x2="-146.74001"
       y2="602.70001"
       gradientTransform="matrix(0,-160.8,160.8,0,-96708.91,-23455.85)"
       xlink:href="#linear-gradient-2" />
    <clipPath
       id="clippath-6">
      <rect
         class="cls-1"
         width="453.28"
         height="453.28"
         id="rect7"
         x="0"
         y="0" />
    </clipPath>
    <clipPath
       id="clippath-7">
      <path
         class="cls-1"
         d="m 312.25,200.38 c -9.9,19.98 -20.31,36.03 -26.89,46.16 -7.59,11.69 -17.82,25.38 -25.92,35.86 0.29,0.77 0.58,1.5 0.85,2.18 12.55,-13.67 31.26,-35.7 46.43,-60.58 3.8,-6.24 7.37,-12.4 10.68,-18.48 0.35,-0.63 0.69,-1.26 1.03,-1.9 -1.67,-1.75 -3.4,-3.52 -5.17,-5.3 -0.34,0.69 -0.67,1.37 -1.01,2.05 m -22.57,-22.55 c -9.62,34.73 -24.26,68.37 -35.86,91.56 1.26,2.76 2.4,5.32 3.41,7.68 10.71,-12.74 19.53,-25.64 29.32,-43.94 5.38,-10.08 12.35,-23.81 18.99,-39.44 l 0.88,-2.07 c -5.54,-5.35 -11.19,-10.56 -16.34,-15.21 l -0.39,1.43 z m -67.01,9.91 c -4.11,4.35 -7.85,8.72 -11.27,13.07 14.92,18.86 26.02,36.78 34.05,51.77 2.92,-11.28 5.95,-23.76 8.65,-36.55 1.76,-8.25 3.37,-16.61 4.76,-24.85 1.94,-11.5 3.56,-22.99 4.79,-34.29 -14.19,7.4 -28.3,17.39 -40.99,30.85"
         id="path8" />
    </clipPath>
    <linearGradient
       id="linear-gradient-5"
       x1="-146.98"
       y1="602.69"
       x2="-146.37"
       y2="602.69"
       gradientTransform="matrix(-129.55,0,0,-129.55,-18730.07,78297.74)"
       gradientUnits="userSpaceOnUse">
      <stop
         offset="0"
         stop-color="#add816"
         id="stop8" />
      <stop
         offset="1"
         stop-color="#dbd704"
         id="stop9" />
    </linearGradient>
    <clipPath
       id="clippath-8">
      <path
         class="cls-1"
         d="m 236.63,299.6 c 7.82,-8.11 14.52,-15.3 20.6,-22.55 -1.01,-2.35 -2.15,-4.92 -3.41,-7.68 -8.21,16.43 -14.91,27.61 -17.19,30.22"
         id="path9" />
    </clipPath>
    <linearGradient
       id="linear-gradient-6"
       x1="-147.03999"
       y1="602.71002"
       x2="-146.42999"
       y2="602.71002"
       gradientTransform="matrix(0,-146,146,0,-87746.69,-21172.69)"
       gradientUnits="userSpaceOnUse">
      <stop
         offset="0"
         stop-color="#e1282b"
         id="stop10" />
      <stop
         offset=".39"
         stop-color="#e3402a"
         id="stop11" />
      <stop
         offset=".7"
         stop-color="#e76226"
         id="stop12" />
      <stop
         offset="1"
         stop-color="#f19a0a"
         id="stop13" />
    </linearGradient>
    <clipPath
       id="clippath-9">
      <path
         class="cls-1"
         d="m 246.24,299.12 c 0.42,-0.4 5.96,-5.74 14.05,-14.53 -0.27,-0.69 -0.55,-1.41 -0.85,-2.18 -7.24,9.38 -12.78,16.2 -13.2,16.71"
         id="path13" />
    </clipPath>
    <linearGradient
       id="linear-gradient-7"
       x1="-147.03999"
       y1="602.69"
       x2="-146.42999"
       y2="602.69"
       gradientTransform="matrix(0,-146,146,0,-87737,-21175.01)"
       xlink:href="#linear-gradient-6" />
    <clipPath
       id="clippath-10">
      <path
         class="cls-1"
         d="m 200.05,217.03 c 9.24,43.24 21.92,82.91 21.92,82.91 h 10 c 0,0 6.43,-20.14 13.48,-47.36 -8.03,-14.99 -19.13,-32.92 -34.05,-51.77 -4.28,5.44 -8.04,10.87 -11.35,16.23"
         id="path14" />
    </clipPath>
    <linearGradient
       id="linear-gradient-8"
       x1="-147.03999"
       y1="602.75"
       x2="-146.42999"
       y2="602.75"
       gradientTransform="matrix(0,-146,146,0,-87776.66,-21165.1)"
       xlink:href="#linear-gradient-6" />
    <clipPath
       id="clippath-11">
      <path
         class="cls-1"
         d="m 181.98,257.56 c 10.1,15.01 20.76,26.94 35.32,42.04 -3.4,-3.88 -16.54,-26.73 -29.96,-57.59 -2.2,5.4 -3.96,10.61 -5.37,15.55"
         id="path15" />
    </clipPath>
    <linearGradient
       id="linear-gradient-9"
       x1="-147.03999"
       y1="602.87"
       x2="-146.42999"
       y2="602.87"
       gradientTransform="matrix(0,-146,146,0,-87817.2,-21150.45)"
       xlink:href="#linear-gradient-6" />
    <clipPath
       id="clippath-12">
      <path
         class="cls-1"
         d="m 179.33,268.24 v 0 c 15.25,18.25 27.75,30.27 28.38,30.88 -0.67,-0.83 -14.44,-17.75 -27.32,-35.52 -0.39,1.58 -0.75,3.13 -1.06,4.63"
         id="path16" />
    </clipPath>
    <linearGradient
       id="linear-gradient-10"
       x1="-147.03999"
       y1="602.90997"
       x2="-146.42999"
       y2="602.90997"
       gradientTransform="matrix(0,-146,146,0,-87829.32,-21146.03)"
       xlink:href="#linear-gradient-6" />
    <linearGradient
       inkscape:collect="always"
       xlink:href="#linear-gradient-2"
       id="linearGradient35"
       gradientUnits="userSpaceOnUse"
       gradientTransform="matrix(0,-160.79,160.79,0,-96770.22,-23439.34)"
       x1="-147.34"
       y1="602.81"
       x2="-146.74001"
       y2="602.81" />
    <linearGradient
       inkscape:collect="always"
       xlink:href="#linear-gradient-6"
       id="linearGradient36"
       gradientUnits="userSpaceOnUse"
       gradientTransform="matrix(0,-146,146,0,-87746.69,-21172.69)"
       x1="-147.03999"
       y1="602.71002"
       x2="-146.42999"
       y2="602.71002" />
  </defs>
  <g
     class="cls-33"
     clip-path="url(#clippath)"
     id="g23"
     transform="translate(-104.79769,-10.44)">
    <path
       class="cls-32"
       d="m 116.8,123.88 c -4.11,-1.87 -7.66,-3.31 -10.56,-4.4 -0.61,-4.56 -1.05,-9.14 -1.34,-13.72 -0.22,-3.78 -0.08,-7.5 0.37,-11.17 2.46,0.4 5.96,1.02 10.31,1.86 -0.43,5.19 -0.47,10.65 0,16.43 0.29,3.69 0.7,7.36 1.22,11 m 40.6,23.97 c -10.38,-7.62 -20.13,-13.52 -28.6,-18.05 -1.72,-10.56 -2.45,-21.01 -1.8,-30.97 7.84,1.73 17.09,3.96 27.28,6.8 -0.68,13.31 0.57,27.63 3.13,42.22 m 106.6,5.55 c -0.1,1.15 -0.23,2.32 -0.36,3.48 -14.19,7.41 -28.3,17.39 -40.99,30.85 -4.11,4.35 -7.85,8.72 -11.27,13.07 -3.84,-4.85 -7.93,-9.77 -12.28,-14.71 -1.95,-2.21 -3.9,-4.35 -5.87,-6.44 -3.26,-21.84 -5.34,-43.39 -5.72,-63.58 25.25,8.96 52.5,21.13 76.48,37.33 v 0 z"
       id="path17" />
    <path
       class="cls-34"
       d="m 119.9,75.23 c -2.12,6.44 -3.67,13.51 -4.31,21.22 -4.35,-0.84 -7.85,-1.46 -10.31,-1.86 0.28,-2.3 0.69,-4.59 1.21,-6.83 3.09,-3.33 7.57,-7.73 13.41,-12.53"
       id="path18" />
    <path
       class="cls-3"
       d="m 169.3,47.4 c -7.47,13.7 -13.45,32.15 -14.96,56.78 -0.02,0.48 -0.05,0.97 -0.07,1.45 -10.19,-2.83 -19.45,-5.06 -27.28,-6.79 0.01,-0.33 0.04,-0.65 0.06,-0.98 0.97,-12.91 4.78,-24.75 10.55,-35.27 8.91,-5.51 19.47,-10.85 31.71,-15.18"
       id="path19" />
    <path
       class="cls-13"
       d="m 264.01,153.4 c -23.98,-16.21 -51.24,-28.37 -76.48,-37.33 -0.49,-24.05 1.39,-46.17 6.36,-64.49 0.14,-0.5 0.27,-1 0.42,-1.5 20.02,11.83 46.11,25.03 70.88,30.82 2.16,21.83 1.51,46.65 -1.18,72.5 z"
       id="path20" />
    <path
       class="cls-29"
       d="m 349.03,105.76 c -0.61,10.16 -2.06,20.22 -4.32,30.27 -2.86,0.11 -6.14,0.3 -9.8,0.61 1.61,-7.75 2.78,-15.68 3.43,-23.76 2.17,-27.18 -6.61,-47.89 -16.77,-62.35 2.98,0.85 5.8,1.68 8.43,2.49 11.41,14.47 20.22,33.05 19.02,52.73 m -25.37,32.21 c -7.96,1.14 -16.93,2.92 -26.41,5.63 2.17,-13.65 3.11,-26.97 2.35,-39.41 -1.73,-28.36 -9.4,-48.52 -18.44,-62.68 8.49,1.4 16.55,3.05 23.98,4.79 11.86,14 20.24,31.47 21.75,51.56 0.96,12.8 -0.42,26.45 -3.24,40.1"
       id="path21" />
    <path
       class="cls-12"
       d="m 265.19,80.91 c -24.77,-5.8 -50.86,-18.99 -70.88,-30.82 1.06,-3.66 2.24,-7 3.54,-10.03 3.67,-0.63 7.44,-1.14 11.33,-1.53 15.64,-1.59 31.26,-1.45 46.14,-0.22 1.75,3.88 3.36,8.28 4.72,13.28 2.43,8.94 4.12,18.78 5.15,29.33"
       id="path22" />
    <path
       class="cls-2"
       d="m 158.26,25.1 c -0.82,0.5 -27.43,16.88 -38.36,50.13 -5.85,4.81 -10.32,9.21 -13.41,12.53 7.23,-31.36 36.1,-56.99 51.77,-62.67 m 16.84,12.94 c -2,2.84 -3.95,5.96 -5.8,9.37 -12.24,4.33 -22.79,9.67 -31.7,15.18 6.82,-12.51 16.39,-23.16 27.19,-31.61 2.56,1.83 6.07,4.25 10.31,7.06 z"
       id="path23" />
  </g>
  <g
     class="cls-19"
     clip-path="url(#clippath-1)"
     id="g24"
     transform="translate(-104.79769,-10.44)">
    <rect
       class="cls-14"
       x="223.62"
       y="-51.48"
       width="47.57"
       height="166.44"
       transform="rotate(-88.26,247.4076,31.729929)"
       id="rect23"
       style="fill:url(#linear-gradient)" />
  </g>
  <polygon
     class="cls-31"
     points="208.6,346.61 226.97,346.61 245.34,346.61 252.14,316.95 201.8,316.95 "
     id="polygon24"
     transform="translate(-104.79769,-10.44)" />
  <g
     class="cls-20"
     clip-path="url(#clippath-3)"
     id="g26"
     transform="translate(-104.79769,-10.44)">
    <rect
       class="cls-11"
       x="106.98"
       y="123.49"
       width="102.18"
       height="140.39"
       transform="rotate(-22.02,158.03796,193.65841)"
       id="rect25"
       style="fill:url(#linearGradient35)" />
  </g>
  <g
     class="cls-21"
     clip-path="url(#clippath-4)"
     id="g27"
     transform="translate(-104.79769,-10.44)">
    <rect
       class="cls-10"
       x="81.059998"
       y="111.01"
       width="124.5"
       height="165.7"
       transform="rotate(-22.02,143.30791,193.83307)"
       id="rect26"
       style="fill:url(#linear-gradient-3)" />
  </g>
  <g
     class="cls-27"
     clip-path="url(#clippath-5)"
     id="g28"
     transform="translate(-104.79769,-10.44)">
    <rect
       class="cls-9"
       x="186.89999"
       y="177.62"
       width="30.84"
       height="41.459999"
       transform="rotate(-22.02,202.31177,198.32498)"
       id="rect27"
       style="fill:url(#linear-gradient-4)" />
  </g>
  <g
     class="cls-24"
     clip-path="url(#clippath-6)"
     id="g29"
     transform="translate(-104.79769,-10.44)">
    <path
       class="cls-30"
       d="m 334.92,136.64 c -4.67,22.69 -12.91,43.71 -21.66,61.69 1.77,1.78 3.5,3.55 5.17,5.3 12.47,-23.19 21.34,-45.38 26.29,-67.61 -2.86,0.11 -6.14,0.29 -9.8,0.61 m -37.68,6.95 c -1.71,10.84 -4.19,21.87 -7.17,32.81 5.16,4.65 10.8,9.86 16.34,15.21 6.93,-16.56 13.42,-35.12 17.23,-53.65 -7.96,1.14 -16.93,2.92 -26.41,5.63"
       id="path28" />
  </g>
  <g
     class="cls-23"
     clip-path="url(#clippath-7)"
     id="g30"
     transform="translate(-104.79769,-10.44)">
    <rect
       class="cls-6"
       x="181.67999"
       y="138.14999"
       width="166.46001"
       height="165.17"
       transform="rotate(-47.53,264.88733,220.72599)"
       id="rect29"
       style="fill:url(#linear-gradient-5)" />
  </g>
  <g
     class="cls-26"
     clip-path="url(#clippath-8)"
     id="g31"
     transform="translate(-104.79769,-10.44)">
    <rect
       class="cls-7"
       x="230.37"
       y="266.23999"
       width="33.130001"
       height="36.5"
       transform="rotate(-30.67,246.91129,284.47398)"
       id="rect30"
       style="fill:url(#linearGradient36)" />
  </g>
  <g
     class="cls-25"
     clip-path="url(#clippath-9)"
     id="g32"
     transform="translate(-104.79769,-10.44)">
    <rect
       class="cls-5"
       x="242.96001"
       y="279.98999"
       width="20.610001"
       height="21.540001"
       transform="rotate(-30.67,253.23188,290.73584)"
       id="rect31"
       style="fill:url(#linear-gradient-7)" />
  </g>
  <g
     class="cls-16"
     clip-path="url(#clippath-10)"
     id="g33"
     transform="translate(-104.79769,-10.44)">
    <rect
       class="cls-4"
       x="177.94"
       y="196.16"
       width="89.620003"
       height="108.43"
       transform="rotate(-30.67,222.72436,250.3561)"
       id="rect32"
       style="fill:url(#linear-gradient-8)" />
  </g>
  <g
     class="cls-15"
     clip-path="url(#clippath-11)"
     id="g34"
     transform="translate(-104.79769,-10.44)">
    <rect
       class="cls-8"
       x="169.75999"
       y="237.03"
       width="59.759998"
       height="67.550003"
       transform="rotate(-30.67,199.61716,270.77935)"
       id="rect33"
       style="fill:url(#linear-gradient-9)" />
  </g>
  <g
     class="cls-17"
     clip-path="url(#clippath-12)"
     id="g35"
     transform="translate(-104.79769,-10.44)">
    <rect
       class="cls-28"
       x="172.25999"
       y="258.85001"
       width="42.529999"
       height="45.029999"
       transform="rotate(-30.67,193.48869,281.33184)"
       id="rect34"
       style="fill:url(#linear-gradient-10)" />
  </g>
</svg>
