<?xml version="1.0" encoding="UTF-8" standalone="no"?>
<svg
   viewBox="29.8 10.6 146.7 121.6844"
   width="2238"
   height="2154.4688"
   version="1.1"
   id="svg2"
   sodipodi:docname="substance-painter.svg"
   inkscape:version="1.4 (86a8ad7, 2024-10-11)"
   xmlns:inkscape="http://www.inkscape.org/namespaces/inkscape"
   xmlns:sodipodi="http://sodipodi.sourceforge.net/DTD/sodipodi-0.dtd"
   xmlns="http://www.w3.org/2000/svg"
   xmlns:svg="http://www.w3.org/2000/svg">
  <defs
     id="defs2" />
  <sodipodi:namedview
     id="namedview2"
     pagecolor="#505050"
     bordercolor="#eeeeee"
     borderopacity="1"
     inkscape:showpageshadow="0"
     inkscape:pageopacity="0"
     inkscape:pagecheckerboard="false"
     inkscape:deskcolor="#505050"
     inkscape:zoom="0.326"
     inkscape:cx="1118.0982"
     inkscape:cy="1127.3006"
     inkscape:window-width="1920"
     inkscape:window-height="1017"
     inkscape:window-x="-8"
     inkscape:window-y="-8"
     inkscape:window-maximized="1"
     inkscape:current-layer="svg2" />
  <g
     fill="#e1262f"
     id="g2"
     transform="translate(-6.6757202e-7,-9.7455195)">
    <circle
       cx="94.5"
       cy="19.799999"
       transform="rotate(-80.781,94.51,19.759)"
       id="ellipse1"
       r="9.1999998" />
    <circle
       cx="162"
       cy="137.3"
       r="14.5"
       id="circle1" />
    <circle
       cx="36.200001"
       cy="137.3"
       r="6.4000001"
       id="circle2" />
    <path
       d="m 94.5,38.7 c -31,0 -56.1,25.1 -56.1,56.1 0,31 25.1,56.1 56.1,56.1 31,0 56.1,-25.1 56.1,-56.1 0,-31 -25.1,-56.1 -56.1,-56.1 z M 56.5,73 94.4,51.1 132.2,73 V 92.8 L 114.8,87.2 V 83.1 L 94.4,71.3 79.4,80 132.2,96.9 v 19.8 L 94.3,138.6 56.4,116.8 V 96.9 l 17.5,5.5 v 4.1 l 20.4,11.8 15.2,-8.8 -53,-16.8 z"
       id="path2" />
  </g>
</svg>
