<?xml version="1.0" encoding="UTF-8" standalone="no"?>
<svg
   id="Layer_1"
   data-name="Layer 1"
   viewBox="0 0 122.13 122.13"
   version="1.1"
   sodipodi:docname="V-Ray clear.svg"
   inkscape:version="1.4 (86a8ad7, 2024-10-11)"
   width="122.13"
   height="122.13"
   xmlns:inkscape="http://www.inkscape.org/namespaces/inkscape"
   xmlns:sodipodi="http://sodipodi.sourceforge.net/DTD/sodipodi-0.dtd"
   xmlns="http://www.w3.org/2000/svg"
   xmlns:svg="http://www.w3.org/2000/svg"
   xmlns:rdf="http://www.w3.org/1999/02/22-rdf-syntax-ns#"
   xmlns:cc="http://creativecommons.org/ns#"
   xmlns:dc="http://purl.org/dc/elements/1.1/">
  <defs
     id="defs9" />
  <sodipodi:namedview
     id="namedview9"
     pagecolor="#505050"
     bordercolor="#eeeeee"
     borderopacity="1"
     inkscape:showpageshadow="0"
     inkscape:pageopacity="0"
     inkscape:pagecheckerboard="0"
     inkscape:deskcolor="#505050"
     inkscape:zoom="3.9061327"
     inkscape:cx="105.09116"
     inkscape:cy="64.385934"
     inkscape:window-width="1920"
     inkscape:window-height="1017"
     inkscape:window-x="-8"
     inkscape:window-y="-8"
     inkscape:window-maximized="1"
     inkscape:current-layer="Layer_1" />
  <title
     id="title1">V-Ray logo - Brandlogos.net</title>
  <rect
     width="122.13"
     height="122.13"
     style="fill:#2857af"
     id="rect1"
     x="0"
     y="0" />
  <path
     d="m 49.84,74.17 c 0.83,1.17 1.78,1.83 2.61,1.78 0.83,-0.05 2.05,-1 2.86,-2.51 a 99.58,99.58 0 0 0 5.91,-14.11 c 2.29,-6.42 4.64,-13 9.37,-19.29 5,-6.52 12.89,-9.06 15.77,-9.77 a 0.55,0.55 0 0 0 0.22,-1 40.66,40.66 0 0 0 -38.93,-6.66 13.31,13.31 0 0 0 -8.84,12.31 c -0.24,10.64 1.46,25.88 11,39.28"
     style="fill:#ffffff"
     id="path1" />
  <path
     d="m 87.69,39.69 c -4.34,0.56 -7.52,3.66 -9.42,6.15 -3.83,5.08 -5.76,10.45 -8,16.7 a 108.53,108.53 0 0 1 -6.49,15.45 c -2.44,4.54 -6.35,9.18 -10.74,9.47 h -0.71 c -4,0 -7.76,-4 -10.42,-7.71 C 32.1,65.98 29.34,50.92 29.05,39.22 a 1.07,1.07 0 0 0 -2,-0.54 40.2,40.2 0 0 0 -5.47,32.24 40.7,40.7 0 0 0 80.2,-9.84 A 40.54,40.54 0 0 0 99.1,46.53 10.6,10.6 0 0 0 91.58,39.94 10.48,10.48 0 0 0 87.7,39.72"
     style="fill:#ffffff"
     id="path2" />
  <metadata
     id="metadata9">
    <rdf:RDF>
      <cc:Work
         rdf:about="">
        <dc:title>V-Ray logo - Brandlogos.net</dc:title>
      </cc:Work>
    </rdf:RDF>
  </metadata>
</svg>
